<svg width="24" height="24" viewBox="0 0 24 24" fill="none" xmlns="http://www.w3.org/2000/svg">
<path d="M15.7541 19.2613C17.609 19.947 18.9122 20.3778 19.6638 20.5539C22.026 21.1072 22.5581 21.5096 21.4355 19.4472C20.3129 17.3848 14.7519 7.40062 13.516 5.17307C11.905 2.26937 12.0309 2.23056 10.3204 5.32886C9.0176 7.68861 3.60166 17.5558 2.53825 19.4472C1.47483 21.3386 1.94771 21.1072 4.30986 20.5539C5.07122 20.3755 6.38609 19.9384 8.25446 19.2426C9.56121 18.7559 10.5202 17.6238 10.7854 16.2548L11.9019 10.4903C11.9128 10.4361 11.9655 10.401 12.0196 10.4118C12.0592 10.4198 12.0901 10.4507 12.0981 10.4903L13.2136 16.2678C13.4788 17.6412 14.4421 18.7763 15.7541 19.2613Z" fill="white"/>
</svg>
