<svg width="20" height="20" viewBox="0 0 20 20" fill="none" xmlns="http://www.w3.org/2000/svg">
<path d="M9.64743 1.10331C9.8841 1.0608 10.1157 1.0608 10.3524 1.10331C10.5882 1.14566 10.7795 1.21335 11.1619 1.38716L17.2912 4.17319C17.6675 4.34423 17.8568 4.46144 18.0445 4.64442C18.2294 4.82467 18.3665 5.03754 18.4541 5.28048C18.543 5.52709 18.5713 5.7479 18.5713 6.16124V13.5545C18.5713 13.9678 18.543 14.1886 18.4541 14.4353C18.3665 14.6782 18.2294 14.8911 18.0445 15.0713C17.8568 15.2543 17.6675 15.3715 17.2912 15.5425L11.027 18.3889C10.731 18.5189 10.5587 18.5754 10.3524 18.6124C10.1157 18.6549 9.8841 18.6549 9.64743 18.6124C9.41162 18.5701 9.22025 18.5024 8.83788 18.3286L2.7086 15.5425C2.33231 15.3715 2.14303 15.2543 1.95531 15.0713C1.77038 14.8911 1.63332 14.6782 1.54574 14.4353C1.45684 14.1886 1.42847 13.9678 1.42847 13.5545L1.42986 6.01484C1.43651 5.69229 1.46795 5.49626 1.54574 5.28048C1.63332 5.03754 1.77038 4.82467 1.95531 4.64442C2.14303 4.46144 2.33231 4.34423 2.7086 4.17319L8.97277 1.3268C9.26878 1.19682 9.4411 1.14036 9.64743 1.10331ZM2.85704 6.32428L2.85734 13.6324C2.85859 13.7756 2.86371 13.8469 2.87445 13.8977L2.88965 13.9508C2.90389 13.9903 2.9224 14.019 2.95247 14.0483C3.00303 14.0976 3.06086 14.1334 3.29975 14.242L9.28561 16.9629L9.28552 9.23749C9.27555 9.23397 9.2656 9.23036 9.25566 9.22668L9.11317 9.16799L2.85704 6.32428ZM17.1428 6.32357L10.8866 9.16799C10.8302 9.19365 10.7729 9.21673 10.715 9.23724L10.7142 16.9629L16.7 14.242C16.8536 14.1722 16.9324 14.1325 16.9824 14.0999L17.0053 14.0841L17.0473 14.0483C17.0774 14.019 17.0959 13.9903 17.1101 13.9508C17.1341 13.8844 17.1428 13.8169 17.1428 13.5545V6.32357ZM6.07132 4.21357L3.86847 5.215L9.70432 7.86747C9.8653 7.94064 10.0466 7.95109 10.2134 7.89883L10.2955 7.86747L12.202 7.00071L6.07132 4.21357ZM10.0998 2.50938C10.0302 2.49687 9.96961 2.49687 9.89995 2.50938C9.80299 2.5268 9.71271 2.55873 9.42902 2.68768L7.79704 3.42857L13.9285 6.21571L16.1306 5.215L10.5708 2.68768C10.3816 2.60171 10.2785 2.55886 10.202 2.53469L10.1657 2.52405L10.0998 2.50938Z" fill="white"/>
</svg>
