<svg width="23" height="7" viewBox="0 0 23 7" fill="none" xmlns="http://www.w3.org/2000/svg">
<path d="M2.33842 6.13633L2.46094 3.97902L0.649858 5.16687L0 4.03761L1.93359 3.06815L0 2.09869L0.649858 0.96943L2.46094 2.15728L2.33842 -3.05176e-05H3.63281L3.51562 2.15728L5.3267 0.96943L5.97656 2.09869L4.03764 3.06815L5.97656 4.03761L5.3267 5.16687L3.51562 3.97902L3.63281 6.13633H2.33842Z" fill="#BDAF7F"/>
<path d="M10.483 6.13633L10.6055 3.97902L8.79439 5.16687L8.14453 4.03761L10.0781 3.06815L8.14453 2.09869L8.79439 0.96943L10.6055 2.15728L10.483 -3.05176e-05H11.7773L11.6602 2.15728L13.4712 0.96943L14.1211 2.09869L12.1822 3.06815L14.1211 4.03761L13.4712 5.16687L11.6602 3.97902L11.7773 6.13633H10.483Z" fill="#BDAF7F"/>
<path d="M18.6275 6.13633L18.75 3.97902L16.9389 5.16687L16.2891 4.03761L18.2227 3.06815L16.2891 2.09869L16.9389 0.96943L18.75 2.15728L18.6275 -3.05176e-05H19.9219L19.8047 2.15728L21.6158 0.96943L22.2656 2.09869L20.3267 3.06815L22.2656 4.03761L21.6158 5.16687L19.8047 3.97902L19.9219 6.13633H18.6275Z" fill="#BDAF7F"/>
</svg>
