<svg width="16" height="16" viewBox="0 0 16 16" fill="none" xmlns="http://www.w3.org/2000/svg">
<path d="M8.99972 1.14282C12.7859 1.14282 15.8569 4.21271 15.8569 7.99996C15.8569 11.7872 12.7859 14.8571 8.99972 14.8571C5.21247 14.8571 2.14258 11.7872 2.14258 7.99996C2.14258 4.21271 5.21247 1.14282 8.99972 1.14282ZM8.99972 2.28568C5.84365 2.28568 3.28544 4.84389 3.28544 7.99996C3.28544 11.156 5.84365 13.7142 8.99972 13.7142C12.1551 13.7142 14.714 11.1556 14.714 7.99996C14.714 4.84429 12.1551 2.28568 8.99972 2.28568Z" fill="#4A6875"/>
<path d="M11.8897 6.11024C11.6666 5.88708 11.3048 5.88708 11.0816 6.11024L8.28566 8.90618L7.20401 7.82452C6.98085 7.60137 6.61904 7.60137 6.39588 7.82452C6.17273 8.04768 6.17273 8.40949 6.39588 8.63265L7.8816 10.1184C8.10475 10.3415 8.46656 10.3415 8.68972 10.1184L11.8897 6.91836C12.1129 6.6952 12.1129 6.33339 11.8897 6.11024Z" fill="#4A6875"/>
</svg>
